<mxfile host="app.diagrams.net" modified="2022-01-19T09:38:53.470Z" agent="5.0 (Macintosh; Intel Mac OS X 10_15_7) AppleWebKit/605.1.15 (KHTML, like Gecko) Version/15.2 Safari/605.1.15" etag="SeWRKc4AhRw7KpQsdOkn" version="16.3.0" type="github">
  <diagram id="u4Vl3C-f084-R6Kv2Fyf" name="Page-1">
    <mxGraphModel dx="2487" dy="748" grid="1" gridSize="10" guides="1" tooltips="1" connect="1" arrows="1" fold="1" page="1" pageScale="1" pageWidth="1169" pageHeight="827" math="0" shadow="0">
      <root>
        <mxCell id="0" />
        <mxCell id="1" parent="0" />
        <mxCell id="aHqvoeCw4b35DwsL77ik-18" style="edgeStyle=orthogonalEdgeStyle;rounded=1;orthogonalLoop=1;jettySize=auto;html=1;exitX=0.5;exitY=1;exitDx=0;exitDy=0;entryX=0.5;entryY=0;entryDx=0;entryDy=0;fontFamily=Times New Roman;fontSize=15;" edge="1" parent="1" source="aHqvoeCw4b35DwsL77ik-1" target="aHqvoeCw4b35DwsL77ik-9">
          <mxGeometry relative="1" as="geometry">
            <Array as="points">
              <mxPoint x="-520" y="325" />
              <mxPoint x="-490" y="325" />
            </Array>
          </mxGeometry>
        </mxCell>
        <mxCell id="aHqvoeCw4b35DwsL77ik-1" value="&lt;font style=&quot;font-size: 15px&quot; face=&quot;Times New Roman&quot;&gt;1.2&lt;br&gt;&lt;br&gt;&lt;br&gt;m1&lt;/font&gt;" style="rounded=1;whiteSpace=wrap;html=1;fillColor=#e1d5e7;strokeColor=#9673a6;" vertex="1" parent="1">
          <mxGeometry x="-560" y="150" width="80" height="120" as="geometry" />
        </mxCell>
        <mxCell id="aHqvoeCw4b35DwsL77ik-6" value="" style="endArrow=none;html=1;rounded=0;entryX=1;entryY=0.5;entryDx=0;entryDy=0;exitX=0;exitY=0.5;exitDx=0;exitDy=0;" edge="1" parent="1" source="aHqvoeCw4b35DwsL77ik-1" target="aHqvoeCw4b35DwsL77ik-1">
          <mxGeometry width="50" height="50" relative="1" as="geometry">
            <mxPoint x="-530" y="240" as="sourcePoint" />
            <mxPoint x="-480" y="190" as="targetPoint" />
          </mxGeometry>
        </mxCell>
        <mxCell id="aHqvoeCw4b35DwsL77ik-19" style="edgeStyle=orthogonalEdgeStyle;orthogonalLoop=1;jettySize=auto;html=1;exitX=0.5;exitY=0;exitDx=0;exitDy=0;entryX=0.5;entryY=0;entryDx=0;entryDy=0;fontFamily=Times New Roman;fontSize=15;rounded=1;" edge="1" parent="1" source="aHqvoeCw4b35DwsL77ik-7" target="aHqvoeCw4b35DwsL77ik-1">
          <mxGeometry relative="1" as="geometry" />
        </mxCell>
        <mxCell id="aHqvoeCw4b35DwsL77ik-7" value="&amp;amp;e" style="whiteSpace=wrap;html=1;aspect=fixed;fontFamily=Times New Roman;fontSize=15;fillColor=#ffe6cc;strokeColor=#d79b00;" vertex="1" parent="1">
          <mxGeometry x="-750" y="370" width="80" height="80" as="geometry" />
        </mxCell>
        <mxCell id="aHqvoeCw4b35DwsL77ik-9" value="" style="rounded=0;whiteSpace=wrap;html=1;fontFamily=Times New Roman;fontSize=15;fillColor=#e1d5e7;strokeColor=#9673a6;" vertex="1" parent="1">
          <mxGeometry x="-530" y="380" width="80" height="140" as="geometry" />
        </mxCell>
        <mxCell id="aHqvoeCw4b35DwsL77ik-12" value="" style="endArrow=none;html=1;rounded=0;fontFamily=Times New Roman;fontSize=15;entryX=1;entryY=0.5;entryDx=0;entryDy=0;exitX=0;exitY=0.5;exitDx=0;exitDy=0;" edge="1" parent="1" source="aHqvoeCw4b35DwsL77ik-9" target="aHqvoeCw4b35DwsL77ik-9">
          <mxGeometry width="50" height="50" relative="1" as="geometry">
            <mxPoint x="-520" y="460" as="sourcePoint" />
            <mxPoint x="-470" y="410" as="targetPoint" />
          </mxGeometry>
        </mxCell>
        <mxCell id="aHqvoeCw4b35DwsL77ik-15" value="ep" style="text;html=1;strokeColor=none;fillColor=none;align=center;verticalAlign=middle;whiteSpace=wrap;rounded=0;fontFamily=Times New Roman;fontSize=15;" vertex="1" parent="1">
          <mxGeometry x="-740" y="450" width="60" height="30" as="geometry" />
        </mxCell>
        <mxCell id="aHqvoeCw4b35DwsL77ik-17" value="m1" style="text;html=1;strokeColor=none;fillColor=none;align=center;verticalAlign=middle;whiteSpace=wrap;rounded=0;fontFamily=Times New Roman;fontSize=15;" vertex="1" parent="1">
          <mxGeometry x="-490" y="350" width="60" height="30" as="geometry" />
        </mxCell>
        <mxCell id="aHqvoeCw4b35DwsL77ik-20" value="x" style="text;html=1;strokeColor=none;fillColor=none;align=center;verticalAlign=middle;whiteSpace=wrap;rounded=0;fontFamily=Times New Roman;fontSize=15;" vertex="1" parent="1">
          <mxGeometry x="-600" y="160" width="60" height="30" as="geometry" />
        </mxCell>
        <mxCell id="aHqvoeCw4b35DwsL77ik-21" value="e" style="text;html=1;strokeColor=none;fillColor=none;align=center;verticalAlign=middle;whiteSpace=wrap;rounded=0;fontFamily=Times New Roman;fontSize=15;" vertex="1" parent="1">
          <mxGeometry x="-600" y="220" width="60" height="30" as="geometry" />
        </mxCell>
        <mxCell id="aHqvoeCw4b35DwsL77ik-22" value="x" style="text;html=1;strokeColor=none;fillColor=none;align=center;verticalAlign=middle;whiteSpace=wrap;rounded=0;fontFamily=Times New Roman;fontSize=15;" vertex="1" parent="1">
          <mxGeometry x="-570" y="410" width="60" height="30" as="geometry" />
        </mxCell>
        <mxCell id="aHqvoeCw4b35DwsL77ik-23" value="e" style="text;html=1;strokeColor=none;fillColor=none;align=center;verticalAlign=middle;whiteSpace=wrap;rounded=0;fontFamily=Times New Roman;fontSize=15;" vertex="1" parent="1">
          <mxGeometry x="-570" y="470" width="60" height="30" as="geometry" />
        </mxCell>
        <mxCell id="aHqvoeCw4b35DwsL77ik-39" style="edgeStyle=orthogonalEdgeStyle;rounded=1;orthogonalLoop=1;jettySize=auto;html=1;exitX=0.5;exitY=0;exitDx=0;exitDy=0;entryX=0.5;entryY=0;entryDx=0;entryDy=0;fontFamily=Times New Roman;fontSize=15;" edge="1" parent="1" source="aHqvoeCw4b35DwsL77ik-30" target="aHqvoeCw4b35DwsL77ik-35">
          <mxGeometry relative="1" as="geometry" />
        </mxCell>
        <mxCell id="aHqvoeCw4b35DwsL77ik-30" value="m2" style="whiteSpace=wrap;html=1;aspect=fixed;fontFamily=Times New Roman;fontSize=15;fillColor=#ffe6cc;strokeColor=#d79b00;" vertex="1" parent="1">
          <mxGeometry x="-390" y="370" width="80" height="80" as="geometry" />
        </mxCell>
        <mxCell id="aHqvoeCw4b35DwsL77ik-31" value="eq" style="text;html=1;strokeColor=none;fillColor=none;align=center;verticalAlign=middle;whiteSpace=wrap;rounded=0;fontFamily=Times New Roman;fontSize=15;" vertex="1" parent="1">
          <mxGeometry x="-380" y="450" width="60" height="30" as="geometry" />
        </mxCell>
        <mxCell id="aHqvoeCw4b35DwsL77ik-34" style="edgeStyle=orthogonalEdgeStyle;rounded=1;orthogonalLoop=1;jettySize=auto;html=1;exitX=0;exitY=0.5;exitDx=0;exitDy=0;entryX=1.042;entryY=0.583;entryDx=0;entryDy=0;entryPerimeter=0;fontFamily=Times New Roman;fontSize=15;" edge="1" parent="1" source="aHqvoeCw4b35DwsL77ik-32" target="aHqvoeCw4b35DwsL77ik-1">
          <mxGeometry relative="1" as="geometry" />
        </mxCell>
        <mxCell id="aHqvoeCw4b35DwsL77ik-32" value="&amp;amp;e.e" style="whiteSpace=wrap;html=1;aspect=fixed;fontFamily=Times New Roman;fontSize=15;fillColor=#dae8fc;strokeColor=#6c8ebf;" vertex="1" parent="1">
          <mxGeometry x="-110" y="140" width="80" height="80" as="geometry" />
        </mxCell>
        <mxCell id="aHqvoeCw4b35DwsL77ik-33" value="epp" style="text;html=1;strokeColor=none;fillColor=none;align=center;verticalAlign=middle;whiteSpace=wrap;rounded=0;fontFamily=Times New Roman;fontSize=15;" vertex="1" parent="1">
          <mxGeometry x="-100" y="110" width="60" height="30" as="geometry" />
        </mxCell>
        <mxCell id="aHqvoeCw4b35DwsL77ik-35" value="1.2&lt;br&gt;&lt;br&gt;&lt;br&gt;NULL" style="rounded=0;whiteSpace=wrap;html=1;fontFamily=Times New Roman;fontSize=15;fillColor=#e1d5e7;strokeColor=#9673a6;" vertex="1" parent="1">
          <mxGeometry y="380" width="80" height="140" as="geometry" />
        </mxCell>
        <mxCell id="aHqvoeCw4b35DwsL77ik-36" value="" style="endArrow=none;html=1;rounded=0;fontFamily=Times New Roman;fontSize=15;entryX=1;entryY=0.5;entryDx=0;entryDy=0;exitX=0;exitY=0.5;exitDx=0;exitDy=0;" edge="1" source="aHqvoeCw4b35DwsL77ik-35" target="aHqvoeCw4b35DwsL77ik-35" parent="1">
          <mxGeometry width="50" height="50" relative="1" as="geometry">
            <mxPoint x="10" y="460" as="sourcePoint" />
            <mxPoint x="60" y="410" as="targetPoint" />
          </mxGeometry>
        </mxCell>
        <mxCell id="aHqvoeCw4b35DwsL77ik-37" value="m2" style="whiteSpace=wrap;html=1;aspect=fixed;fontFamily=Times New Roman;fontSize=15;fillColor=#dae8fc;strokeColor=#6c8ebf;" vertex="1" parent="1">
          <mxGeometry x="-150" y="441" width="80" height="80" as="geometry" />
        </mxCell>
        <mxCell id="aHqvoeCw4b35DwsL77ik-40" style="edgeStyle=orthogonalEdgeStyle;rounded=1;orthogonalLoop=1;jettySize=auto;html=1;exitX=1;exitY=0.5;exitDx=0;exitDy=0;fontFamily=Times New Roman;fontSize=15;" edge="1" parent="1" source="aHqvoeCw4b35DwsL77ik-37">
          <mxGeometry relative="1" as="geometry">
            <mxPoint x="30" y="380" as="targetPoint" />
            <Array as="points">
              <mxPoint x="-70" y="480" />
              <mxPoint x="-40" y="480" />
              <mxPoint x="-40" y="360" />
              <mxPoint x="30" y="360" />
            </Array>
          </mxGeometry>
        </mxCell>
        <mxCell id="aHqvoeCw4b35DwsL77ik-38" value="ep" style="text;html=1;strokeColor=none;fillColor=none;align=center;verticalAlign=middle;whiteSpace=wrap;rounded=0;fontFamily=Times New Roman;fontSize=15;" vertex="1" parent="1">
          <mxGeometry x="-140" y="410" width="60" height="30" as="geometry" />
        </mxCell>
        <mxCell id="aHqvoeCw4b35DwsL77ik-41" value="&lt;font style=&quot;font-size: 20px&quot;&gt;MAIN&lt;/font&gt;" style="text;html=1;strokeColor=none;fillColor=none;align=center;verticalAlign=middle;whiteSpace=wrap;rounded=0;fontFamily=Times New Roman;fontSize=15;" vertex="1" parent="1">
          <mxGeometry x="-580" y="60" width="60" height="30" as="geometry" />
        </mxCell>
        <mxCell id="aHqvoeCw4b35DwsL77ik-42" value="&lt;font style=&quot;font-size: 20px&quot;&gt;FUNCTION&lt;/font&gt;" style="text;html=1;strokeColor=none;fillColor=none;align=center;verticalAlign=middle;whiteSpace=wrap;rounded=0;fontFamily=Times New Roman;fontSize=15;" vertex="1" parent="1">
          <mxGeometry x="-110" y="60" width="60" height="30" as="geometry" />
        </mxCell>
        <mxCell id="aHqvoeCw4b35DwsL77ik-43" value="" style="endArrow=none;html=1;rounded=1;fontFamily=Times New Roman;fontSize=20;fillColor=#f8cecc;strokeColor=#b85450;" edge="1" parent="1">
          <mxGeometry width="50" height="50" relative="1" as="geometry">
            <mxPoint x="-240" y="600" as="sourcePoint" />
            <mxPoint x="-240" y="20" as="targetPoint" />
          </mxGeometry>
        </mxCell>
        <mxCell id="aHqvoeCw4b35DwsL77ik-44" value="x" style="text;html=1;strokeColor=none;fillColor=none;align=center;verticalAlign=middle;whiteSpace=wrap;rounded=0;fontFamily=Times New Roman;fontSize=15;" vertex="1" parent="1">
          <mxGeometry x="-40" y="400" width="60" height="30" as="geometry" />
        </mxCell>
        <mxCell id="aHqvoeCw4b35DwsL77ik-45" value="e" style="text;html=1;strokeColor=none;fillColor=none;align=center;verticalAlign=middle;whiteSpace=wrap;rounded=0;fontFamily=Times New Roman;fontSize=15;" vertex="1" parent="1">
          <mxGeometry x="-40" y="460" width="60" height="30" as="geometry" />
        </mxCell>
      </root>
    </mxGraphModel>
  </diagram>
</mxfile>
